<svg width="180" height="50" viewBox="0 0 180 50" fill="none" xmlns="http://www.w3.org/2000/svg">
  <!-- Background circle with gradient -->
  <defs>
    <linearGradient id="logoGradient" x1="0%" y1="0%" x2="100%" y2="100%">
      <stop offset="0%" style="stop-color:#3B82F6;stop-opacity:1" />
      <stop offset="100%" style="stop-color:#1E40AF;stop-opacity:1" />
    </linearGradient>
  </defs>
  
  <!-- Main logo icon - simple hexagon with code brackets -->
  <g transform="translate(10, 5)">
    <!-- Central hexagon representing technology -->
    <polygon points="20,0 35,10 35,30 20,40 5,30 5,10" 
              fill="url(#logoGradient)" 
              stroke="#1E40AF" 
              stroke-width="2"/>
    
    <!-- Code brackets representing development -->
    <path d="M 8 15 L 15 20 L 8 25 M 32 15 L 25 20 L 32 25" 
          stroke="white" 
          stroke-width="2" 
          stroke-linecap="round"/>
    
    <!-- Central dot representing core/center -->
    <circle cx="20" cy="20" r="3" fill="white"/>
  </g>
  
  <!-- Company name - using simple shapes instead of text -->
  <g fill="#1F2937">
    <!-- H -->
    <rect x="60" y="15" width="3" height="20"/>
    <rect x="60" y="24" width="12" height="3"/>
    <rect x="69" y="15" width="3" height="20"/>
    
    <!-- & -->
    <rect x="75" y="15" width="8" height="20"/>
    <rect x="77" y="17" width="4" height="4"/>
    <rect x="77" y="23" width="4" height="4"/>
    <rect x="79" y="19" width="4" height="4"/>
    <rect x="79" y="25" width="4" height="4"/>
    
    <!-- C -->
    <rect x="86" y="15" width="3" height="20"/>
    <rect x="86" y="15" width="8" height="3"/>
    <rect x="86" y="32" width="8" height="3"/>
  </g>
  
  <!-- TECH SOLUTION text -->
  <g fill="#6B7280">
    <!-- T -->
    <rect x="60" y="30" width="10" height="2"/>
    <rect x="64" y="30" width="2" height="8"/>
    
    <!-- E -->
    <rect x="72" y="30" width="8" height="2"/>
    <rect x="72" y="33" width="6" height="2"/>
    <rect x="72" y="36" width="8" height="2"/>
    
    <!-- C -->
    <rect x="82" y="30" width="2" height="8"/>
    <rect x="82" y="30" width="6" height="2"/>
    <rect x="82" y="36" width="6" height="2"/>
    
    <!-- H -->
    <rect x="90" y="30" width="2" height="8"/>
    <rect x="90" y="33" width="6" height="2"/>
    <rect x="94" y="30" width="2" height="8"/>
  </g>
</svg>
